<svg xmlns="http://www.w3.org/2000/svg" width="490" height="490" viewBox="0 0 490 490">
  <defs>
    <style>
      .cls-1 {
        fill: #042051;
      }

      .cls-2 {
        fill: #dfac49;
      }

      .cls-3 {
        fill: #f0c55b;
      }

      .cls-4 {
        fill: #0058ce;
      }

      .cls-5 {
        fill: #f8cb6a;
      }
    </style>
  </defs>
  <g id="Layer_2" data-name="Layer 2">
    <g id="Layer_11" data-name="Layer 11">
      <g id="Layer_9_copy" data-name="Layer 9 copy">
        <circle class="cls-1" cx="245" cy="245" r="245"/>
        <circle class="cls-2" cx="245" cy="245" r="235"/>
        <circle class="cls-1" cx="245" cy="245" r="225"/>
      </g>
      <g id="b_copy" data-name="b copy">
        <path class="cls-3" d="M166.0614,363.31c-20.2022-.0632-40.0083-1.7926-57.3775-13.5294-19.119-12.9191-20.9392-34.6335-6.8567-51.9943a16.2719,16.2719,0,0,0,1.3079-2.1448c1.6444.7772,1.2486,1.3436.957,1.8134-11.3569,18.2908-4.1323,36.8139,11.3841,47.8958,13.0086,9.2908,27.8,14.0389,43.3793,16.6971C161.2593,362.4577,163.66,362.8885,166.0614,363.31Z"/>
        <path class="cls-4" d="M334.0124,211.8138c17.0657,2.93,33.6,6.3517,48.2365,15.8846,17.0785,11.1235,26.7282,26.3088,27.4449,47.1708.82,23.8789-8.9767,43.019-24.7184,59.92-17.5274,18.8182-39.11,31.3469-62.4951,41.4032-14.23,6.1193-28.9524,10.679-43.7883,14.7354-7.7973,2.132-15.9925,3.3118-24.046,4.73a296.3462,296.3462,0,0,1-56.7809,4.1166c-14.3929-.2519-28.7932-1.3759-42.8086-4.6874-21.206-5.01-41.6409-12.032-57.8011-27.6783-7.0945-6.869-12.9435-14.9336-14.8713-24.607-2.63-13.1952-.5768-25.8255,9.3084-36.7932-.2527,3.2782-1.9875,5.4836-2.7168,8.0253-4.5867,15.9832,1.5561,28.4442,13.3193,38.2767,10.7583,8.9925,23.602,14.0349,37.4046,17.2509a169.7162,169.7162,0,0,0,40.4609,4.1016,252.8269,252.8269,0,0,0,76.8443-13.1436c21.7466-7.1529,42.183-16.7461,60.795-29.9674,14.6662-10.4183,27.0052-23.01,34.6969-39.77,8.2965-18.0764,5.364-38.4351-8.7107-51.78-9.62-9.1213-21.7895-12.9883-34.6465-15.0074-9.3968-1.4756-18.8489-1.0711-28.2871-.9368-2.9143.0415-4.1495-.0889-4.1335-3.8647.0405-9.6115-.1908-8.7945,9.3677-10.2122,16.83-2.4962,32.8786-7.1172,43.6859-22.0939,10.6208-14.7182,7.26-37.3161-12.1228-45.23-10.5973-4.3272-21.4569-5.6153-32.6843-5.226-6.0232.2088-12.0731-.45-18.0755.7726-1.5762.321-4.4131,1.1714-4.21-1.7777.1755-2.5513-2.5884-6.6751,2.5774-7.4809,6.25-.9751,12.5207-2.2246,18.8135-2.4371,11.4615-.387,22.989-.7217,34.41.0649,15.0313,1.0353,29.5306,4.3157,42.449,13.01,17.0055,11.4447,19.4855,33.1657,8.3076,48.9606-7.3516,10.3881-17.7246,16.4813-28.9441,21.5472C338.2138,210.0294,336.1068,210.9075,334.0124,211.8138Z"/>
      </g>
      <g id="i_copy" data-name="i copy">
        <polygon class="cls-5" points="227.505 68.769 192.129 82.733 192.129 139.521 227.505 125.557 227.505 68.769"/>
        <polygon class="cls-5" points="227.505 135.798 192.129 151.416 192.129 363.881 227.505 347.332 227.505 135.798"/>
        <polygon class="cls-2" points="243.332 62.252 207.955 76.217 207.955 133.005 243.332 119.04 243.332 62.252"/>
        <polygon class="cls-2" points="243.332 129.281 207.955 144.323 207.955 356.434 243.332 339.529 243.332 129.281"/>
      </g>
    </g>
  </g>
</svg>
