<svg xmlns="http://www.w3.org/2000/svg" width="1126.1249" height="270" viewBox="0 0 1126.1249 270">
  <defs>
    <style>
      .cls-1 {
        fill: #ecb854;
      }

      .cls-2 {
        fill: #ebb955;
      }

      .cls-3 {
        fill: #ecba54;
      }

      .cls-4 {
        fill: #ecb955;
      }

      .cls-5 {
        fill: #eaba57;
      }

      .cls-6 {
        fill: #eebe5b;
      }

      .cls-7 {
        fill: #edbe58;
      }

      .cls-8 {
        fill: #eadaa4;
      }

      .cls-9 {
        fill: #d6c4a2;
      }

      .cls-10 {
        fill: #042051;
      }

      .cls-11 {
        fill: #dfac49;
      }

      .cls-12 {
        fill: #f0c55b;
      }

      .cls-13 {
        fill: #0058ce;
      }

      .cls-14 {
        fill: #f8cb6a;
      }
    </style>
  </defs>
  <g id="Layer_2" data-name="Layer 2">
    <g id="art_3" data-name="art 3">
      <g id="logo_name_copy" data-name="logo name copy">
        <path class="cls-1" d="M807.9874,161.5612c-1.578-1.13-2.2284.5331-2.9214,1.3541-3.6464,4.3394-7.1755,8.7961-10.79,13.1675a53.84,53.84,0,0,1-11.6855,10.8113c-2.9747,1.9511-6.2159,5.5762-9.9157,2.7081-3.38-2.6228-1.1514-6.6637-.0212-9.8943a125.8111,125.8111,0,0,1,5.0537-11.7069c4.2009-8.9987,9.6491-17.411,12.7837-26.8895,1.6207-4.8725,2.0685-9.9156-2.207-13.8712-4.1369-3.8171-9.0946-3.55-14.0418-2.0578-5.5549,1.6739-10.1822,4.99-14.2658,9.0094-6.2692,6.1626-12.6557,12.24-17.4,19.8313,1.1941-4.7233,2.8787-9.1586,4.2541-13.69,1.514-5.0111,1.5567-10.0436-2.7828-13.7433-4.3181-3.6784-9.3506-2.8361-14.1058-.821-6.4931,2.74-11.4829,7.5913-16.4514,12.4425-6.1946,6.0667-10.96,13.3275-16.5474,19.9167,3.6037-8.9348,8.21-17.2831,12.8157-25.6422,1.1408-2.0684,2.8894-4.382-.789-6.0879-6.0773-2.8255-13.7007-.3945-16.6967,5.47-7.1542,13.9885-12.7944,28.8726-24.4479,40.1743-5.8534,5.6722-11.0778,12.0481-18.1361,16.3235-2.1537,1.3114-4.6913,3.124-7.378,1.1089-2.4736-1.8445-1.5567-4.6167-1.0556-6.93,1.1622-5.4057,3.7-10.3315,6.0987-15.2787,5.7255-11.8241,12.1226-23.275,18.7011-34.6408,1.1622-1.9937,2.6655-4.0834-.3732-5.8534-5.331-3.1133-14.0418-.821-17.24,4.4781-8.6789,14.415-15.8331,29.8109-27.284,42.4347-5.1178,5.6508-10.1609,11.4083-17.0059,15.14-2.0791,1.13-4.3181,2.1964-6.4292.4265-1.8445-1.546-1.7272-3.849-1.0129-5.9494a116.77,116.77,0,0,1,4.2222-11.451c6.1519-13.4021,13.4341-26.1965,20.7695-38.97,1.12-1.94,2.9107-3.9982.128-6.0026-4.5953-3.3053-14.6176-1.1622-17.443,3.8809-5.8961,10.5234-11.3337,21.324-17.56,31.6448a74.5938,74.5938,0,0,1-27.5186,26.7509c-1.9618,1.1088-4.2435,2.2177-6.4612.4052-2.335-1.9192-1.9724-4.5314-1.1835-6.8877a99.79,99.79,0,0,1,4.6593-11.8775,355.7223,355.7223,0,0,1,20.7376-37.7754c2.1537-3.3478,1.8232-5.5229-2.0471-6.9515a13.0289,13.0289,0,0,0-16.0357,5.4269c-3.8809,6.781-8.1351,13.3914-11.3123,20.4924-5.1924,11.6428-13.2955,20.8441-22.4755,29.31-3.38,3.124-6.8343,6.2479-11.11,8.1138-4.9471,2.175-7.7192.2879-7.3034-5.0218a25.15,25.15,0,0,1,1.5886-6.685c8.0605-21.9638,20.3111-41.763,32.4231-61.5837a386.355,386.355,0,0,1,29.3205-41.8269c1.4074-1.7379,2.9534-3.284.032-5.1391-5.395-3.4332-15.3533-1.9619-19.4048,3.0493A281.8829,281.8829,0,0,0,529.443,102.75c-6.0347,9.9263-11.8455,19.9806-17.8162,30.0774-6.0347-8.22-13.6687-10.7472-24.2134-7.6659-17.7416,5.1923-30.0455,17.315-38.9056,32.7856a98.596,98.596,0,0,1-18.7757,23.5523,38.9993,38.9993,0,0,1-12.3573,8.1671c-4.4354,1.7166-6.9943-.2239-6.4718-4.9152.4585-4.1155,2.271-7.8152,4.02-11.5042,6.5678-13.786,14.1484-27.0282,21.9424-40.1425,2.57-4.3287,1.6419-6.3118-3.3266-7.3247-6.8237-1.3861-11.2164.3305-14.7242,6.3545-5.0858,8.7428-10.0969,17.539-14.7775,26.495-4.1689,8.0179-8.2844,16.11-9.8837,25.173-2.0258,11.5789,5.5443,18.6905,16.9632,15.8544a35.8983,35.8983,0,0,0,15.2467-8.391c4.3074-3.8276,8.3909-7.9,13.1355-12.4,0,3.1666-.1172,5.5975.0214,8.0071.5011,8.1565,5.9813,13.4235,14.1378,13.6154,5.7148.128,10.7366-1.9618,15.4492-5.0005,9.3506-6.024,16.3448-14.49,23.8189-22.7313-1.5247,4.9472-2.7615,9.873-2.5482,15.0227.3838,8.9241,6.749,13.9033,15.4705,12.1014a32.8483,32.8483,0,0,0,12.8477-6.12c6.0027-4.4247,11.227-9.7237,17.379-16.1529-.64,2.7827-.9809,3.9663-1.1834,5.1711-2.1751,12.9116,5.5229,19.8739,18.1147,16.4087,6.5144-1.7912,11.8987-5.5336,16.6114-10.1608,3.689-3.6251,6.9515-7.666,10.406-11.5256.4478.3731.9063.7569,1.3541,1.1408-1.0342,1.7912-.97,3.753-1.2581,5.6722-1.8552,12.3679,7.41,18.6691,19.2982,14.5323a36.6014,36.6014,0,0,0,11.27-6.909c5.6082-4.6913,10.1822-10.3848,15.3-15.63a8.6931,8.6931,0,0,1-.3519,2.73c-1.2261,6.4718-3.22,13.4021,2.9321,18.2959,6.5677,5.2138,13.4128,2.57,19.8846-1.0129.7783-.4264,1.4713-.9915,2.207-1.4819,7.6447-5.0218,13.6367-11.8242,20.29-18.0828-2.26,5.363-4.5634,10.694-6.77,16.0676-.7357,1.8019-1.4927,3.6464.65,5.2244,4.4247,3.2413,13.4554,1.13,16.0036-3.8383,6.1626-12.0161,12.9436-23.67,21.1961-34.3742,6.4931-8.4124,12.9116-16.9526,21.6438-23.2965,1.93-1.4073,4.19-3.5931,6.6744-1.8125,2.5376,1.8338,1.0768,4.5846.2026,6.845q-1.9992,5.2137-4.4248,10.2461c-6.1626,12.7731-12.6344,25.4076-18.0507,38.5325-.9489,2.2923-2.1324,4.67.0319,6.92,3.6145,3.7744,13.21,2.2817,15.5773-2.4309,6.056-12.0694,12.5491-23.8936,20.6416-34.7368,6.5784-8.8068,13.1355-17.6989,22.486-23.8829,1.9193-1.2687,4.2862-3.5824,6.6638-1.29,2.1218,2.0577.6611,4.7339-.3411,6.9409-1.9192,4.19-4.1156,8.2524-6.152,12.4-4.4354,9.0627-9.8944,17.72-11.8882,27.8064-2.74,13.8606,5.9815,21.3773,19.2983,16.718a22.0534,22.0534,0,0,0,4.8191-2.25c12.3466-7.9858,20.8976-19.5435,29.2565-31.2823C809.4694,163.8429,809.3414,162.5421,807.9874,161.5612Zm-335.65,23.7655a25.8532,25.8532,0,0,1-7.2714,4.3075c-5.5336,2.1111-8.5935-.0213-8.4976-6.3119a16.8091,16.8091,0,0,1,1.482-7.3461c6.024-15.0441,14.7989-28.1583,27.7318-38.1912,3.8277-2.9641,8.05-5.2031,12.9543-5.6722,2.8788-.2666,5.7362.0426,7.602,2.7081,1.8872,2.6869,1.1729,5.2137-.2772,7.9219C497.393,158.9917,486.6138,173.5346,472.3373,185.3267Z"/>
        <path class="cls-2" d="M940.7017,124.8659A65.7037,65.7037,0,0,1,957.75,129.42c16.5768,6.672,21.1416,23.057,11.2725,39.7453-7.5563,12.7775-19.1136,20.8538-32.2512,26.7824-24.8092,11.1955-50.6308,16.3315-77.736,10.834-16.4257-3.3316-22.7922-15.4039-16.8837-31.1441,6.0062-16.0009,16.0811-29.5738,26.5026-42.833a628.6485,628.6485,0,0,1,48.8825-54.81c3.4351-3.452,6.9-4.6822,11.44-3.3772,3.2807.943,6.93,1.8351,8.0974,5.3563,1.2311,3.7132-2.6325,4.9726-4.6767,6.9375-25.2925,24.3119-48.2351,50.57-66.805,80.4566a59.4274,59.4274,0,0,0-6.7707,14.4069c-3.0579,10.3441.8268,16.1768,11.5365,17.3893a76.6973,76.6973,0,0,0,27.9762-2.2088c19.9342-5.1474,38.2786-13.0528,51.4792-29.8394a33.2427,33.2427,0,0,0,5.2552-9.81c3.53-10.2519-.2614-18.3313-10.3779-22.2264-8.9925-3.4623-18.3923-3.6112-27.839-3.1408-3.1914.1588-6.3734.5-9.5627.7118-2.6549.1767-5.3155-.2274-5.8135-3.297-.4619-2.8473,1.5513-4.8483,4.1015-5.4528,6.0265-1.4284,12.2-2.2438,18.2187-3.6986,18.5-4.4711,35.9388-11.1382,49.6643-25.0973a33.9877,33.9877,0,0,0,6.335-8.5025c4.8836-9.7088,1.6594-17.9352-8.5224-21.7157A55.3053,55.3053,0,0,0,952.4449,61.66c-33.6294-.3112-64.6228,8.1353-91.8094,28.5681a55.4632,55.4632,0,0,0-15.7549,17.8183c-.9742,1.7913-1.3931,4.2737-4.3417,3.8008a6.8448,6.8448,0,0,1-5.6695-4.9945c-1.6013-5.0229.3041-9.47,2.8974-13.6043,5.5215-8.8023,13.43-15.0778,22.3517-20.0627,28.854-16.1219,60.077-22.1088,92.8181-21.0516,11.7711.38,23.3612,2.1089,33.9424,7.8319,13.7646,7.445,17.1339,21.1615,8.3371,34.1743-7.2517,10.7273-17.993,16.85-29.4632,21.9942C957.6751,119.7572,949.18,122.1418,940.7017,124.8659Z"/>
        <path class="cls-3" d="M1125.1388,161.4546c-2.1324-1.5887-2.74.6717-3.657,1.6845-1.5354,1.7167-2.7828,3.6891-4.2755,5.4377-6.685,7.8472-13.37,15.7158-22.6461,20.6949-2.0151,1.0769-4.2115,2.0365-6.5251.4265-2.41-1.6739-1.7486-4.1262-1.4393-6.3119a29.0154,29.0154,0,0,1,1.7912-6.088c3.5077-9.3186,8.1244-18.104,12.89-26.8149,3.3158-6.0667,6.7917-12.0587,10.1716-18.0934,1.3647-2.42,1.9724-4.5953-1.45-5.9707a13.1692,13.1692,0,0,0-16.1209,5.1284c-8.53,14.2977-15.8117,29.3844-26.7723,42.1575-4.7446,5.5336-9.713,10.8539-15.9183,14.7989-2.0791,1.3327-4.4354,2.6441-6.93,1.0022-2.6548-1.77-1.7059-4.5847-1.13-6.8024a66.2726,66.2726,0,0,1,3.8383-10.47c6.1094-13.6154,13.53-26.5484,21.0255-39.4387,1.1408-1.9725,2.7614-4.041.0107-6.0027-4.4994-3.2093-14.0419-1.0876-16.8673,3.87-4.6593,8.167-9.6171,16.2062-13.6154,24.6824-5.8854,12.4532-15.4385,21.5159-25.77,29.9922a27.5659,27.5659,0,0,1-12.7944,6.216c-3.7744.65-7.3461-.4585-7.5273-4.6486-.4372-10.033.5331-20.034,8.988-27.0175,22.934-18.9251,42.4667-40.74,57.4041-66.5308,3.7424-6.4825,6.9837-13.1995,7.4314-20.8548.4905-8.4657-4.35-12.9544-12.7943-12.0055a23.581,23.581,0,0,0-8.9774,3.1773,64.0463,64.0463,0,0,0-17.6243,15.236c-19.9379,24-34.4489,51.1242-45.6866,80.0608-3.2626,8.4336-5.8,17.1551-5.32,26.42.5437,10.3848,8.0178,16.8247,18.1466,15.4066a37.19,37.19,0,0,0,15.6945-6.2159c7.08-4.7659,12.8157-11.0459,19.4794-17.6563a41.3242,41.3242,0,0,0-1.77,10.7686c.0639,8.2737,5.4482,13.2,13.7219,12.5492,4.3821-.3519,8.1778-2.1964,11.7708-4.5953,8.0819-5.395,14.2871-12.6452,20.3858-20.2472a64.4171,64.4171,0,0,0-1.7379,8.8389c-1.29,12.9436,6.3119,18.9463,18.7437,14.7668,5.8535-1.9725,10.5768-5.64,15.14-9.6491,7.9325-6.9729,14.2657-15.2893,20.3964-23.7762C1125.6719,164.3973,1127.1006,162.926,1125.1388,161.4546Zm-116.3862-27.3054a322.8989,322.8989,0,0,1,34.0651-54.3974,38.7506,38.7506,0,0,1,8.6894-8.5189c1.5034-1.0129,3.1133-1.8659,4.8939-.6611,1.7912,1.2155,1.6952,3.1346,1.2368,4.8192a45.8531,45.8531,0,0,1-2.9747,8.4976c-13.0609,25.994-31.89,47.4565-53.5658,68.1088C1002.8672,144.9178,1006.0125,139.6081,1008.7526,134.1492Z"/>
        <path class="cls-1" d="M267.8129,198.0807c12.3176-.6434,16.3042-9.6033,20.5974-19.2932,10.5955-23.9147,22.0229-47.46,33.0185-71.1988,2.9652-6.4017,2.4292-7.35-4.0611-9.4888a3.7184,3.7184,0,0,1,3.2211-1.5821c10.0653-.1206,20.1441-.8344,30.1872.4591a2.7418,2.7418,0,0,1,1.7741,1.0618c-6.3034.86-9.6041,4.8865-12.3435,10.367-12.1447,24.297-23.3313,49.025-34.1035,73.9492-.4226.9777-.8656,1.9484-1.2435,2.9434-3.5209,9.27-2.7941,10.4844,7.098,11.8629.7.0976,1.4067.112,1.6689.9479-1.4956,1.5941-3.4355,1.5915-5.4194,1.5878-11.8882-.0224-23.7766-.0041-35.6649-.0189C270.8035,199.6758,268.9117,200.0232,267.8129,198.0807Z"/>
        <path class="cls-4" d="M405.636,132.6245a18.5593,18.5593,0,0,1-6.877,13.8713c-1.5034,1.3114-3.3585,2.1111-5.427,1.3221-2.2816-.8849-2.1324-2.7508-2.1643-4.8405-.0747-4.7126-3.3372-5.9921-7.7726-2.9961-6.2479,4.2328-11.0885,10.0117-15.6412,15.8758-9.3505,12.0693-18.0187,24.64-24.5865,38.5217-2.3669,5-11.8775,7.506-16.1529,4.3074-2.1751-1.6313-1.4607-3.657-.6717-5.7575,4.35-11.6642,10.0223-22.7207,15.204-34.001q6.4452-14.0259,12.965-28.02c2.3563-5.0431,12.208-7.5167,16.6114-4.2648,1.8125,1.3434,1.6419,2.8787.7783,4.6806-1.6419,3.4331-3.1773,6.909-4.7553,10.3741l-7.5486,15.4279a.01.01,0,0,0-.0107.0106c-.0107.0214-.0214.0321-.032.0534a.44.44,0,0,0-.064.2026c-.3731.9809-.7463,1.9618-1.13,2.9426q5.2938-7.2287,10.5874-14.4363a136.5029,136.5029,0,0,1,15.3639-15.94c3.38-2.9427,7.1755-5.2776,11.7282-5.864C401.83,123.338,405.8066,126.8458,405.636,132.6245Z"/>
        <path class="cls-5" d="M364.3372,68.6594c-15.0885.7258-22.938,8.74-26.1618,23.0608-.475-14.2134-6.929-22.2653-21.5951-23.681,14.1054-1.6876,23.16-8.0087,25.3268-23.0392C342.4071,59.85,349.95,67.158,364.3372,68.6594Z"/>
        <path class="cls-6" d="M443.8083,92.4171a8.8988,8.8988,0,0,1,9.419,8.6777c.1811,6.3117-5.5017,12.465-11.7957,12.7727a8.8755,8.8755,0,0,1-9.6049-9.0022A12.6506,12.6506,0,0,1,443.8083,92.4171Z"/>
        <path class="cls-7" d="M584.1412,92.4431a9.0211,9.0211,0,0,1,9.2122,8.9474,12.426,12.426,0,0,1-11.9441,12.4221,8.8911,8.8911,0,0,1-9.2455-9.4221C572.2523,98.2265,578.0587,92.4345,584.1412,92.4431Z"/>
        <path class="cls-8" d="M267.8129,198.0807a13.3146,13.3146,0,0,0,6.1825,1.1366c11.1474-.0418,22.2959-.0826,33.4419.0477,2.2087.0258,4.1182-.8366,6.1893-1.1556.4538,2.7679-1.636,2.1971-3.06,2.2014q-20.4214.0632-40.8431-.01C268.5375,200.2957,265.8362,201.0441,267.8129,198.0807Z"/>
        <path class="cls-9" d="M352.55,98.0387c-11.7277-1.6184-23.4535-2.2451-35.1784.0611-.9194.1225-1.8787.1-2.008-1.0352-.1344-1.181.8471-1.3859,1.7479-1.385q17.9226.018,35.8452.08c.9613.0032,1.8668.35,1.3273,1.5107C354.0835,97.7016,353.15,97.7925,352.55,98.0387Z"/>
      </g>
      <g id="Layer_9_copy_2" data-name="Layer 9 copy 2">
        <circle class="cls-10" cx="135" cy="135" r="135"/>
        <circle class="cls-11" cx="135" cy="135" r="129.4898"/>
        <circle class="cls-10" cx="135" cy="135" r="123.9796"/>
      </g>
      <g id="Layer_19" data-name="Layer 19">
        <g id="b_copy_2" data-name="b copy 2">
          <path class="cls-12" d="M93.3733,200.3784c-10.6328-.0333-21.0571-.9434-30.1988-7.1207-10.0627-6.8-11.0207-18.2283-3.6088-27.3656a8.5548,8.5548,0,0,0,.6883-1.1288c.8655.4091.6572.7072.5037.9544-5.9773,9.6268-2.1749,19.3758,5.9917,25.2084,6.8466,4.89,14.6314,7.389,22.8313,8.788C90.8458,199.93,92.1091,200.1567,93.3733,200.3784Z"/>
          <path class="cls-13" d="M181.7688,120.6434c8.982,1.5419,17.6844,3.343,25.3877,8.36,8.9887,5.8545,14.0676,13.8468,14.4447,24.8268.4317,12.5679-4.7246,22.6417-13.01,31.537-9.225,9.9043-20.5841,16.4984-32.8922,21.7912a174.535,174.535,0,0,1-23.0466,7.7555c-4.1038,1.1221-8.4171,1.7431-12.6558,2.4894a155.9752,155.9752,0,0,1-29.8848,2.1666,105.8556,105.8556,0,0,1-22.5309-2.467C76.42,214.4662,65.6648,210.7706,57.16,202.5357c-3.734-3.6153-6.8124-7.86-7.8271-12.9511-1.384-6.9449-.3035-13.5924,4.8992-19.3649-.133,1.7254-1.046,2.8861-1.43,4.2239-2.4141,8.4122.819,14.9706,7.01,20.1457,5.6623,4.7329,12.4221,7.3867,19.6867,9.0794a89.3261,89.3261,0,0,0,21.2953,2.1587,133.0647,133.0647,0,0,0,40.4445-6.9177,118.6992,118.6992,0,0,0,31.9975-15.7723c7.719-5.4834,14.2133-12.1109,18.2615-20.9315,4.3666-9.514,2.8232-20.2291-4.5846-27.2527-5.0632-4.8006-11.4682-6.8359-18.2351-7.8986-4.9456-.7767-9.92-.5637-14.8879-.493-1.5339.0218-2.184-.0469-2.1756-2.0341.0214-5.0587-.1-4.6287,4.93-5.3749,8.858-1.3138,17.3046-3.7459,22.9927-11.6284,5.59-7.7464,3.8208-19.64-6.38-23.8055a40.8757,40.8757,0,0,0-17.2024-2.7505c-3.17.11-6.3543-.2367-9.5134.4066-.83.1689-2.3227.6165-2.2159-.9357.0923-1.3428-1.3623-3.5132,1.3565-3.9373a82.9792,82.9792,0,0,1,9.9018-1.2827,177.1064,177.1064,0,0,1,18.1108.0342c7.9113.5449,15.5425,2.2714,22.3416,6.8473,8.95,6.0235,10.2556,17.4556,4.3725,25.7688-3.8693,5.4674-9.3288,8.6744-15.2338,11.3406C183.98,119.7042,182.8711,120.1664,181.7688,120.6434Z"/>
        </g>
        <g id="i_copy_2" data-name="i copy 2">
          <polygon class="cls-14" points="125.712 45.356 107.093 52.706 107.093 82.595 125.712 75.245 125.712 45.356"/>
          <polygon class="cls-14" points="125.712 80.635 107.093 88.855 107.093 200.679 125.712 191.969 125.712 80.635"/>
          <polygon class="cls-11" points="134.042 41.927 115.423 49.276 115.423 79.165 134.042 71.815 134.042 41.927"/>
          <polygon class="cls-11" points="134.042 77.205 115.423 85.122 115.423 196.759 134.042 187.862 134.042 77.205"/>
        </g>
      </g>
    </g>
  </g>
</svg>
