<svg xmlns="http://www.w3.org/2000/svg" width="490" height="490" viewBox="0 0 490 490">
  <defs>
    <style>
      .cls-1 {
        fill: #042051;
      }

      .cls-2 {
        fill: #dfac49;
      }

      .cls-3 {
        font-size: 24px;
        fill: #e8e8e8;
        font-family: BentonSansComp-Bold, BentonSans Comp Bold;
        letter-spacing: 0.07em;
      }

      .cls-10, .cls-3 {
        font-weight: 700;
      }

      .cls-4 {
        letter-spacing: 0.1em;
      }

      .cls-5 {
        letter-spacing: 0.1em;
      }

      .cls-6 {
        letter-spacing: 0.074em;
      }

      .cls-7 {
        letter-spacing: 0.071em;
      }

      .cls-8 {
        letter-spacing: 0.09em;
      }

      .cls-9 {
        letter-spacing: 0.07em;
      }

      .cls-10 {
        font-size: 40.1781px;
        font-family: HelveticaCE-NarrowBold, Helvetica;
      }

      .cls-10, .cls-15 {
        fill: #eec654;
      }

      .cls-11 {
        letter-spacing: 0.22em;
      }

      .cls-12 {
        letter-spacing: 0.2em;
      }

      .cls-13 {
        letter-spacing: 0.24em;
      }

      .cls-14 {
        letter-spacing: 0.16em;
      }

      .cls-16 {
        fill: #ecb854;
      }

      .cls-17 {
        fill: #ebb955;
      }

      .cls-18 {
        fill: #ecba54;
      }

      .cls-19 {
        fill: #ecb955;
      }

      .cls-20 {
        fill: #eaba57;
      }

      .cls-21 {
        fill: #eebe5b;
      }

      .cls-22 {
        fill: #edbe58;
      }

      .cls-23 {
        fill: #eadaa4;
      }

      .cls-24 {
        fill: #d6c4a2;
      }

      .cls-25 {
        fill: #f0c55b;
      }

      .cls-26 {
        fill: #0058ce;
      }

      .cls-27 {
        fill: #f8cb6a;
      }
    </style>
  </defs>
  <g id="Layer_2" data-name="Layer 2">
    <g id="art_1" data-name="art 1">
      <g id="Layer_9" data-name="Layer 9">
        <circle class="cls-1" cx="245" cy="245" r="245"/>
        <circle class="cls-2" cx="245" cy="245" r="235"/>
        <circle class="cls-1" cx="245" cy="245" r="225"/>
      </g>
      <g id="Layer_8" data-name="Layer 8">
        <text class="cls-3" transform="translate(126.7893 390.085)">A<tspan class="cls-4" x="13.1997" y="0" xml:space="preserve"> UNI</tspan><tspan x="57.5034" y="0">T</tspan><tspan class="cls-5" x="69.4551" y="0" xml:space="preserve"> O</tspan><tspan class="cls-6" x="91.127" y="0">F</tspan><tspan class="cls-4" x="102.5508" y="0"> </tspan><tspan class="cls-7" x="109.271" y="0">S</tspan><tspan class="cls-5" x="122.3027" y="0">YD</tspan><tspan class="cls-8" x="150.4541" y="0">R</tspan><tspan class="cls-5" x="164.3501" y="0">U</tspan><tspan class="cls-9" x="178.75" y="0">V</tspan><tspan class="cls-5" x="191.8779" y="0" xml:space="preserve"> LL</tspan><tspan class="cls-8" x="222.9336" y="0">P</tspan></text>
      </g>
      <g id="hotel">
        <text class="cls-10" transform="translate(147.519 354.3184) scale(1.3483 1)"><tspan class="cls-11">H</tspan><tspan class="cls-12" x="32.6262" y="0">O</tspan><tspan class="cls-13" x="66.2936" y="0">T</tspan><tspan class="cls-14" x="96.0668" y="0">E</tspan><tspan x="124.4699" y="0">L</tspan></text>
        <rect class="cls-15" x="74.149" y="339.7436" width="59.7772" height="2.9399"/>
        <rect class="cls-15" x="351.906" y="338.2737" width="59.7772" height="2.9399"/>
      </g>
      <g id="logo_name" data-name="logo name">
        <path class="cls-16" d="M299.7982,292.1766c-.7251-.5193-1.024.245-1.3425.6223-1.6757,1.9942-3.2976,4.0423-4.9586,6.0512a24.7414,24.7414,0,0,1-5.37,4.9684c-1.3671.8967-2.8566,2.5626-4.5568,1.2445-1.5532-1.2053-.5292-3.0623-.01-4.5469a57.7935,57.7935,0,0,1,2.3225-5.38c1.93-4.1354,4.4343-8.0013,5.8748-12.3572.7448-2.2392.9506-4.5568-1.0143-6.3746-1.9011-1.7542-4.1794-1.6317-6.4529-.9457a15.9884,15.9884,0,0,0-6.5559,4.14c-2.8811,2.8321-5.8161,5.625-7.9965,9.1136.5488-2.1706,1.323-4.2089,1.955-6.2913.6958-2.3029.7154-4.6156-1.2788-6.3158-1.9844-1.69-4.2971-1.3034-6.4824-.3773-2.984,1.2592-5.2771,3.4886-7.56,5.718-2.8468,2.788-5.037,6.1247-7.6045,9.1528a109.1859,109.1859,0,0,1,5.8895-11.7839c.5243-.9506,1.3279-2.0138-.3626-2.7978a5.9243,5.9243,0,0,0-7.673,2.5136c-3.2878,6.4285-5.88,13.2685-11.2352,18.4623-2.69,2.6067-5.0908,5.5368-8.3345,7.5016-.99.6026-2.1559,1.4356-3.3906.51-1.1368-.8476-.7154-2.1216-.4851-3.1848a31.5516,31.5516,0,0,1,2.8027-7.0214c2.6311-5.4338,5.571-10.6962,8.5942-15.9193.534-.9163,1.2249-1.8766-.1715-2.69a6.3485,6.3485,0,0,0-7.923,2.0579c-3.9884,6.6245-7.2761,13.7-12.5385,19.5011-2.3519,2.5969-4.6694,5.2427-7.8151,6.9577-.9555.5193-1.9844,1.0093-2.9546.196a2.3583,2.3583,0,0,1-.4655-2.7341,53.6645,53.6645,0,0,1,1.94-5.2624c2.8271-6.159,6.1737-12.0387,9.5447-17.9087.5145-.8917,1.3376-1.8374.0588-2.7585-2.1118-1.5189-6.7176-.5341-8.016,1.7835-2.71,4.8361-5.2085,9.7995-8.07,14.5425a34.2789,34.2789,0,0,1-12.6463,12.2936c-.9015.51-1.95,1.0191-2.9692.1861-1.0731-.8819-.9065-2.0824-.5439-3.1652a45.8586,45.8586,0,0,1,2.1412-5.4584,163.4671,163.4671,0,0,1,9.53-17.36c.99-1.5385.8378-2.538-.9408-3.1946a5.9876,5.9876,0,0,0-7.3693,2.494c-1.7835,3.1162-3.7385,6.1541-5.1986,9.4174-2.3862,5.3505-6.11,9.579-10.3287,13.4694a18.9062,18.9062,0,0,1-5.1056,3.7287c-2.2735,1-3.5474.1323-3.3563-2.3078a11.5606,11.5606,0,0,1,.73-3.0721c3.7043-10.0935,9.3341-19.1924,14.9-28.3011a177.5614,177.5614,0,0,1,13.4744-19.2218c.6468-.7986,1.3573-1.5091.0147-2.3617-2.4793-1.5777-7.0557-.9015-8.9176,1.4014a129.55,129.55,0,0,0-9.7848,14.0378c-2.7733,4.5617-5.4437,9.1822-8.1875,13.8222-2.7733-3.7777-6.2815-4.9389-11.1274-3.5229-8.1533,2.3862-13.8076,7.9572-17.8793,15.0668a45.3115,45.3115,0,0,1-8.6285,10.8236,17.9207,17.9207,0,0,1-5.6788,3.7532c-2.0383.7889-3.2143-.1028-2.9742-2.2588a16.8631,16.8631,0,0,1,1.8472-5.2868c3.0183-6.3354,6.502-12.4209,10.0838-18.4477,1.1808-1.9893.7545-2.9006-1.5288-3.3661-3.1358-.637-5.1545.1519-6.7665,2.92-2.3372,4.0178-4.64,8.06-6.7912,12.1759-1.9158,3.6846-3.8071,7.4036-4.542,11.5684-.931,5.3211,2.5479,8.5893,7.7955,7.2859a16.4958,16.4958,0,0,0,7.0067-3.8561c1.98-1.759,3.8561-3.6307,6.0365-5.6984,0,1.4552-.0539,2.5723.01,3.68a6.2941,6.2941,0,0,0,6.4971,6.257,12.4479,12.4479,0,0,0,7.1-2.298c4.2971-2.7684,7.5113-6.6588,10.9461-10.4463a20.5041,20.5041,0,0,0-1.1711,6.9038c.1764,4.1011,3.1016,6.3893,7.11,5.5612a15.0963,15.0963,0,0,0,5.9042-2.8124,63.0819,63.0819,0,0,0,7.9866-7.4232c-.2939,1.2788-.4507,1.8227-.5438,2.3764-1,5.9336,2.5381,9.1332,8.3247,7.5407a17.5791,17.5791,0,0,0,7.6338-4.6694c1.6953-1.666,3.1947-3.523,4.7822-5.2967.2058.1715.4165.3479.6223.5243a6.9013,6.9013,0,0,0-.5782,2.6067c-.8526,5.6837,3.4053,8.5794,8.8686,6.6784a16.8206,16.8206,0,0,0,5.179-3.1751,99.318,99.318,0,0,0,7.0312-7.1831,3.9945,3.9945,0,0,1-.1617,1.2544c-.5635,2.9741-1.48,6.159,1.3475,8.408,3.0182,2.396,6.1639,1.1808,9.1381-.4655.3576-.196.6761-.4557,1.0142-.6811,3.5131-2.3078,6.2668-5.4338,9.3243-8.31-1.0388,2.4646-2.0972,4.9145-3.1114,7.384-.3381.828-.686,1.6757.2989,2.4009,2.0334,1.49,6.1835.5194,7.3546-1.764a101.47,101.47,0,0,1,9.7407-15.7968c2.984-3.8659,5.9336-7.7907,9.9465-10.706.8869-.6468,1.9256-1.6513,3.0673-.833,1.1662.8428.4949,2.1069.0931,3.1457q-.9187,2.396-2.0334,4.7086c-2.8321,5.87-5.8062,11.6762-8.2953,17.7078-.4361,1.0535-.98,2.1461.0147,3.18,1.661,1.7345,6.0708,1.0485,7.1585-1.1172a105.4264,105.4264,0,0,1,9.486-15.9634c3.0231-4.0472,6.0365-8.1336,10.3336-10.9755.882-.5831,1.97-1.6463,3.0624-.5929.975.9457.3038,2.1755-.1568,3.19-.882,1.9256-1.8913,3.7924-2.8272,5.6984-2.0383,4.1648-4.547,8.1434-5.4632,12.7786-1.2593,6.37,2.7488,9.824,8.8686,7.6828a10.1316,10.1316,0,0,0,2.2146-1.0338c5.674-3.67,9.6036-8.9813,13.445-14.3759A1.0968,1.0968,0,0,0,299.7982,292.1766Zm-154.25,10.9216a11.883,11.883,0,0,1-3.3416,1.98c-2.543.97-3.9492-.01-3.9052-2.9007a7.7253,7.7253,0,0,1,.6811-3.376A40.7163,40.7163,0,0,1,151.7271,281.25a11.5075,11.5075,0,0,1,5.9532-2.6067,3.4835,3.4835,0,0,1,3.4936,1.2445c.8672,1.2348.539,2.396-.1274,3.6405A63.7149,63.7149,0,0,1,145.5485,303.0982Z"/>
        <path class="cls-17" d="M360.7878,275.3131a30.1917,30.1917,0,0,1,7.8347,2.093c7.618,3.0661,9.7158,10.5959,5.18,18.2651-3.4726,5.872-8.7838,9.5835-14.8213,12.308-11.4011,5.145-23.2676,7.5053-35.7239,4.9789-7.5486-1.5311-10.4743-7.079-7.759-14.3125,2.76-7.3533,7.39-13.5908,12.1794-19.6841a288.8783,288.8783,0,0,1,22.4642-25.1882,4.8892,4.8892,0,0,1,5.2572-1.552c1.5076.4333,3.1848.8433,3.7212,2.4615.5657,1.7064-1.21,2.2852-2.1492,3.1882-11.6233,11.1727-22.1667,23.24-30.7006,36.9742a27.3115,27.3115,0,0,0-3.1115,6.6208c-1.4053,4.7537.38,7.4341,5.3016,7.9913a35.2459,35.2459,0,0,0,12.8566-1.015c9.1609-2.3655,17.5912-5.9985,23.6576-13.7129a15.2753,15.2753,0,0,0,2.415-4.5083c1.6222-4.7113-.12-8.4242-4.7692-10.2142-4.1325-1.5912-8.4523-1.6595-12.7935-1.4434-1.4667.073-2.929.23-4.3946.3271-1.22.0812-2.4428-.1045-2.6716-1.5151a2.2226,2.2226,0,0,1,1.8848-2.5059c2.7695-.6564,5.6064-1.0312,8.3725-1.7,8.502-2.0547,16.5159-5.1186,22.8235-11.5336a15.62,15.62,0,0,0,2.9113-3.9074c2.2443-4.4617.7626-8.2422-3.9165-9.98a25.4178,25.4178,0,0,0-8.6524-1.4827c-15.4546-.143-29.6978,3.7386-42.1915,13.1286a25.4874,25.4874,0,0,0-7.24,8.1885c-.4477.8232-.64,1.964-1.9952,1.7467a3.1455,3.1455,0,0,1-2.6055-2.2952c-.7359-2.3083.14-4.3521,1.3315-6.252a27.4725,27.4725,0,0,1,10.2719-9.22c13.26-7.4089,27.6087-10.16,42.655-9.6744,5.41.1747,10.7358.9692,15.5984,3.5992,6.3256,3.4214,7.874,9.7249,3.8314,15.705-3.3326,4.93-8.2688,7.7437-13.54,10.1076A110.0565,110.0565,0,0,1,360.7878,275.3131Z"/>
        <path class="cls-18" d="M445.5469,292.1277c-.98-.73-1.2593.3086-1.6807.7741-.7055.7889-1.2788,1.6953-1.9648,2.4989-3.0721,3.6062-6.1443,7.2223-10.4071,9.51-.926.4949-1.9354.9359-2.9986.196-1.1074-.7692-.8036-1.8962-.6615-2.9006a13.3377,13.3377,0,0,1,.8232-2.7978,97.1658,97.1658,0,0,1,5.9238-12.3229c1.5238-2.788,3.1211-5.5417,4.6744-8.3149.6271-1.1123.9064-2.1118-.6664-2.7439a6.052,6.052,0,0,0-7.4085,2.3568c-3.92,6.5706-7.2663,13.5037-12.3033,19.3737a33.7168,33.7168,0,0,1-7.3154,6.8009c-.9554.6124-2.0383,1.2151-3.1848.4606-1.22-.8134-.784-2.107-.5194-3.1261a30.4615,30.4615,0,0,1,1.7639-4.8116,195.7448,195.7448,0,0,1,9.6624-18.1242c.5243-.9065,1.269-1.8571.0049-2.7586-2.0677-1.4748-6.453-.5-7.7514,1.7786-2.1412,3.7532-4.42,7.4477-6.2571,11.343-2.7047,5.7229-7.0948,9.8877-11.8427,13.783a12.667,12.667,0,0,1-5.88,2.8566c-1.7346.2989-3.376-.2107-3.4593-2.1363-.2009-4.6107.245-9.2067,4.1305-12.416a113.1323,113.1323,0,0,0,26.38-30.5746c1.72-2.9791,3.2094-6.0659,3.4151-9.5839.2254-3.8905-1.9991-5.9533-5.88-5.5172a10.8389,10.8389,0,0,0-4.1256,1.46,29.4337,29.4337,0,0,0-8.0993,7.0018c-9.1626,11.0294-15.8312,23.4944-20.9955,36.7924-1.4994,3.8757-2.6655,7.8837-2.445,12.1416.25,4.7724,3.6846,7.7319,8.3394,7.08a17.091,17.091,0,0,0,7.2125-2.8565c3.2534-2.19,5.8895-5.0762,8.9518-8.1141a18.9916,18.9916,0,0,0-.8133,4.9488c.0294,3.8022,2.5038,6.0659,6.306,5.767a11.3372,11.3372,0,0,0,5.4093-2.1118c3.7141-2.4793,6.5657-5.8111,9.3684-9.3047a29.6072,29.6072,0,0,0-.7987,4.062c-.5928,5.9483,2.9007,8.7068,8.6138,6.7861a20.6885,20.6885,0,0,0,6.9577-4.4342A64.0842,64.0842,0,0,0,445.4,294.0239C445.7918,293.48,446.4484,292.8038,445.5469,292.1277ZM392.061,279.5793a148.393,148.393,0,0,1,15.6547-24.9986,17.8111,17.8111,0,0,1,3.9933-3.9149c.6909-.4655,1.4308-.8575,2.249-.3038a1.8492,1.8492,0,0,1,.5684,2.2147,21.0717,21.0717,0,0,1-1.367,3.9051c-6.0022,11.9457-14.6553,21.8089-24.6165,31.3A37.8116,37.8116,0,0,1,392.061,279.5793Z"/>
        <path class="cls-16" d="M51.5582,308.9594c5.6606-.2957,7.4927-4.4133,9.4656-8.8663,4.8693-10.99,10.1208-21.81,15.1739-32.72,1.3626-2.9419,1.1163-3.3777-1.8663-4.3606a1.7086,1.7086,0,0,1,1.48-.7271c4.6256-.0554,9.2574-.3834,13.8727.211a1.26,1.26,0,0,1,.8153.4879c-2.8967.3951-4.4136,2.2457-5.6725,4.7642-5.5812,11.1659-10.722,22.53-15.6724,33.9838-.1942.4493-.3978.8954-.5715,1.3527-1.618,4.26-1.284,4.8181,3.2619,5.4516.3216.0449.6465.0515.767.4356a3.068,3.068,0,0,1-2.49.73c-5.4633-.01-10.9267-.0019-16.39-.0087C52.9326,309.6924,52.0631,309.8521,51.5582,308.9594Z"/>
        <path class="cls-19" d="M114.8955,278.8787a8.5292,8.5292,0,0,1-3.16,6.3746,2.3853,2.3853,0,0,1-2.494.6075c-1.0485-.4066-.98-1.2641-.9947-2.2245-.0343-2.1656-1.5336-2.7536-3.5719-1.3768a32.5436,32.5436,0,0,0-7.188,7.2958,96.6128,96.6128,0,0,0-11.2988,17.7029c-1.0878,2.2979-5.4584,3.4494-7.4232,1.98-.9995-.75-.6713-1.6807-.3087-2.6459,1.9991-5.36,4.6058-10.4415,6.9871-15.6254q2.9619-6.4457,5.9581-12.8766c1.0829-2.3176,5.61-3.4543,7.6339-1.96.8329.6174.7545,1.3229.3577,2.151-.7546,1.5777-1.46,3.175-2.1854,4.7675l-3.469,7.09a.0048.0048,0,0,0-.0049.0049c-.0049.01-.01.0147-.0147.0245a.2021.2021,0,0,0-.0294.0931c-.1715.4508-.343.9016-.5194,1.3524q2.4328-3.322,4.8655-6.6343a62.7226,62.7226,0,0,1,7.0606-7.3252,10.2338,10.2338,0,0,1,5.39-2.6949A3.617,3.617,0,0,1,114.8955,278.8787Z"/>
        <path class="cls-20" d="M95.9164,249.4831c-6.9339.3336-10.5412,4.0167-12.0228,10.5977-.2182-6.5318-3.1842-10.2321-9.9241-10.8827,6.4822-.7756,10.6435-3.68,11.6391-10.5878C85.8383,245.4345,89.3049,248.7932,95.9164,249.4831Z"/>
        <path class="cls-21" d="M132.4378,260.4011a4.09,4.09,0,0,1,4.3286,3.9879,6.0046,6.0046,0,0,1-5.4208,5.87,4.0788,4.0788,0,0,1-4.414-4.137A5.8137,5.8137,0,0,1,132.4378,260.4011Z"/>
        <path class="cls-22" d="M196.9286,260.4131a4.1457,4.1457,0,0,1,4.2335,4.1118,5.71,5.71,0,0,1-5.489,5.7086,4.0859,4.0859,0,0,1-4.2488-4.33A5.837,5.837,0,0,1,196.9286,260.4131Z"/>
        <path class="cls-23" d="M51.5582,308.9594a6.119,6.119,0,0,0,2.8412.5223c5.1228-.0192,10.2462-.038,15.3684.0219a16.7,16.7,0,0,0,2.8443-.531c.2086,1.272-.7518,1.01-1.4064,1.0116q-9.3847.0291-18.77-.0046C51.8912,309.9773,50.65,310.3212,51.5582,308.9594Z"/>
        <path class="cls-24" d="M90.5,262.9845a48.643,48.643,0,0,0-16.1664.0281c-.4226.0563-.8634.046-.9228-.4757-.0618-.5427.3893-.6369.8032-.6365q8.2365.0082,16.4729.0366c.4418.0015.8579.161.61.6943C91.2043,262.83,90.7752,262.8714,90.5,262.9845Z"/>
      </g>
      <g id="b">
        <path class="cls-25" d="M195.3733,210.3784c-10.6328-.0333-21.0571-.9434-30.1988-7.1207-10.0627-6.8-11.0207-18.2283-3.6088-27.3656a8.5548,8.5548,0,0,0,.6883-1.1288c.8655.4091.6572.7072.5037.9544-5.9773,9.6268-2.1749,19.3758,5.9917,25.2084,6.8466,4.89,14.6314,7.389,22.8313,8.788C192.8458,209.93,194.1091,210.1567,195.3733,210.3784Z"/>
        <path class="cls-26" d="M283.7688,130.6434c8.982,1.5419,17.6844,3.343,25.3877,8.36,8.9887,5.8545,14.0676,13.8468,14.4447,24.8268.4317,12.5679-4.7246,22.6417-13.01,31.537-9.225,9.9043-20.5841,16.4984-32.8922,21.7912a174.535,174.535,0,0,1-23.0466,7.7555c-4.1038,1.1221-8.4171,1.7431-12.6558,2.4894a155.9752,155.9752,0,0,1-29.8848,2.1666,105.8556,105.8556,0,0,1-22.5309-2.467c-11.1611-2.6371-21.9164-6.3327-30.4217-14.5676-3.734-3.6153-6.8124-7.86-7.8271-12.9511-1.384-6.9449-.3035-13.5924,4.8992-19.3649-.133,1.7254-1.046,2.8861-1.43,4.2239-2.4141,8.4122.819,14.9706,7.01,20.1457,5.6623,4.7329,12.4221,7.3867,19.6867,9.0794a89.3261,89.3261,0,0,0,21.2953,2.1587,133.0647,133.0647,0,0,0,40.4445-6.9177,118.6992,118.6992,0,0,0,31.9975-15.7723c7.719-5.4834,14.2133-12.1109,18.2615-20.9315,4.3666-9.514,2.8232-20.2291-4.5846-27.2527-5.0632-4.8006-11.4682-6.8359-18.2351-7.8986-4.9456-.7767-9.9205-.5637-14.8879-.493-1.5339.0218-2.184-.0469-2.1756-2.0341.0214-5.0587-.1-4.6287,4.93-5.3749,8.858-1.3138,17.3046-3.7459,22.9927-11.6284,5.59-7.7464,3.8208-19.64-6.38-23.8055a40.8757,40.8757,0,0,0-17.2024-2.7505c-3.17.11-6.3543-.2367-9.5134.4066-.83.1689-2.3227.6165-2.2159-.9357.0923-1.3428-1.3623-3.5132,1.3565-3.9373a82.9792,82.9792,0,0,1,9.9018-1.2827,177.1064,177.1064,0,0,1,18.1108.0342c7.9113.5449,15.5425,2.2714,22.3416,6.8473,8.95,6.0235,10.2556,17.4556,4.3725,25.7688-3.8693,5.4674-9.3288,8.6744-15.2338,11.3406C285.98,129.7042,284.8711,130.1664,283.7688,130.6434Z"/>
      </g>
      <g id="i">
        <polygon class="cls-27" points="227.712 55.356 209.093 62.706 209.093 92.595 227.712 85.245 227.712 55.356"/>
        <polygon class="cls-27" points="227.712 90.635 209.093 98.855 209.093 210.679 227.712 201.969 227.712 90.635"/>
        <polygon class="cls-2" points="236.042 51.927 217.423 59.276 217.423 89.165 236.042 81.815 236.042 51.927"/>
        <polygon class="cls-2" points="236.042 87.205 217.423 95.122 217.423 206.759 236.042 197.862 236.042 87.205"/>
      </g>
    </g>
  </g>
</svg>
